<?xml version="1.0" encoding="utf-8" ?>
<svg xmlns="http://www.w3.org/2000/svg" xmlns:xlink="http://www.w3.org/1999/xlink" width="20" height="20" viewBox="0 0 20 20">
	<defs>
		<clipPath id="clipPath2880253685">
			<path transform="matrix(1 0 0 1 0 0)" d="M0 0L20 0L20 20L0 20L0 0Z" fill-rule="nonzero"/>
		</clipPath>
	</defs>
	<g clip-path="url(#clipPath2880253685)">
		<path transform="matrix(1 0 0 1 0 0)" d="M6.52459 3.71209C6.15847 4.0782 6.15847 4.6718 6.52459 5.03791L11.4867 10L6.52459 14.9621C6.15847 15.3282 6.15847 15.9218 6.52459 16.2879C6.8907 16.654 7.4843 16.654 7.85041 16.2879L13.4754 10.6629Q13.5407 10.5976 13.592 10.5208Q13.6433 10.4441 13.6786 10.3588Q13.714 10.2735 13.732 10.1829Q13.75 10.0923 13.75 10Q13.75 9.90766 13.732 9.8171Q13.714 9.72654 13.6786 9.64123Q13.6433 9.55593 13.592 9.47915Q13.5407 9.40238 13.4754 9.33709L7.85041 3.71209C7.4843 3.34597 6.8907 3.34597 6.52459 3.71209Z" fill-rule="evenodd" fill="rgb(156, 163, 175)"/>
	</g>
</svg>
