<?xml version="1.0" encoding="utf-8" ?>
<svg xmlns="http://www.w3.org/2000/svg" xmlns:xlink="http://www.w3.org/1999/xlink" width="24" height="24" viewBox="0 0 24 24">
	<defs>
		<clipPath id="clipPath9280385972">
			<path transform="matrix(1 0 0 1 0 0)" d="M0 0L24 0L24 24L0 24L0 0Z" fill-rule="nonzero"/>
		</clipPath>
	</defs>
	<g clip-path="url(#clipPath9280385972)">
		<path transform="matrix(1 0 0 1 0 0)" d="M5.25 4.5L18.75 4.5Q19.2071 4.5 19.626 4.67728Q20.0297 4.84818 20.3408 5.15922Q20.6518 5.47025 20.8227 5.87403Q21 6.29286 21 6.75L21 12.75Q21 13.2071 20.8227 13.626Q20.6518 14.0297 20.3408 14.3408Q20.0297 14.6518 19.626 14.8227Q19.2071 15 18.75 15L5.25 15Q4.79285 15 4.37403 14.8227Q3.97026 14.6518 3.65922 14.3408Q3.34818 14.0297 3.17728 13.626Q3 13.2071 3 12.75L3 6.75Q3 6.29286 3.17728 5.87403Q3.34818 5.47026 3.65922 5.15922Q3.97026 4.84818 4.37403 4.67728Q4.79286 4.5 5.25 4.5ZM5.25 6Q4.93976 6 4.71988 6.21988Q4.5 6.43976 4.5 6.75L4.5 12.75Q4.5 13.0602 4.71988 13.2801Q4.93976 13.5 5.25 13.5L18.75 13.5Q19.0602 13.5 19.2801 13.2801Q19.5 13.0602 19.5 12.75L19.5 6.75Q19.5 6.43976 19.2801 6.21988Q19.0602 6 18.75 6L5.25 6Z" fill-rule="evenodd" fill="rgb(75, 85, 99)"/>
		<path transform="matrix(1 0 0 1 0 0)" d="M5.25 13.5L18.75 13.5Q19.2071 13.5 19.626 13.6773Q20.0297 13.8482 20.3408 14.1592Q20.6518 14.4703 20.8227 14.874Q21 15.2929 21 15.75L21 18.75Q21 19.2071 20.8227 19.626Q20.6518 20.0297 20.3408 20.3408Q20.0297 20.6518 19.626 20.8227Q19.2071 21 18.75 21L5.25 21Q4.79286 21 4.37403 20.8227Q3.97025 20.6518 3.65922 20.3408Q3.34818 20.0297 3.17728 19.626Q3 19.2071 3 18.75L3 15.75Q3 15.2929 3.17728 14.874Q3.34818 14.4703 3.65922 14.1592Q3.97026 13.8482 4.37403 13.6773Q4.79286 13.5 5.25 13.5ZM5.25 15Q4.93976 15 4.71988 15.2199Q4.5 15.4398 4.5 15.75L4.5 18.75Q4.5 19.0602 4.71988 19.2801Q4.93976 19.5 5.25 19.5L18.75 19.5Q19.0602 19.5 19.2801 19.2801Q19.5 19.0602 19.5 18.75L19.5 15.75Q19.5 15.4398 19.2801 15.2199Q19.0602 15 18.75 15L5.25 15Z" fill-rule="evenodd" fill="rgb(75, 85, 99)"/>
		<path transform="matrix(1 0 0 1 0 0)" d="M18.7478 6L5.25 6Q4.79153 5.99872 4.37379 5.82138Q3.97076 5.65028 3.66024 5.33976Q3.34972 5.02924 3.17862 4.62621Q3.00128 4.20847 3 3.7521Q3.00128 3.29153 3.17862 2.87379Q3.34972 2.47076 3.66024 2.16024Q3.97076 1.84972 4.37379 1.67862Q4.79153 1.50128 5.2479 1.5L18.75 1.5Q19.2085 1.50128 19.6262 1.67862Q20.0292 1.84972 20.3398 2.16024Q20.6503 2.47076 20.8214 2.87379Q20.9987 3.29153 21 3.7479Q20.9987 4.20847 20.8214 4.62621Q20.6503 5.02924 20.3398 5.33976Q20.0292 5.65028 19.6262 5.82138Q19.2085 5.99872 18.7521 6L18.7478 6ZM5.25 4.5L18.75 4.49999Q19.0598 4.49839 19.2791 4.2791Q19.4991 4.05907 19.5 3.7521Q19.4991 3.44093 19.2791 3.2209Q19.0591 3.00087 18.75 3L5.2521 3Q4.94093 3.00087 4.7209 3.2209Q4.50087 3.44093 4.5 3.7479Q4.50087 4.05907 4.7209 4.2791Q4.94093 4.49913 5.25 4.5ZM3.75 20.25C3.75 19.8358 4.08579 19.5 4.5 19.5C4.91421 19.5 5.25 19.8358 5.25 20.25L5.25 21L6 21L6 20.25C6 19.8358 6.33579 19.5 6.75 19.5C7.16421 19.5 7.5 19.8358 7.5 20.25L7.5 21.2812Q7.5 21.7859 7.14297 22.143Q6.78594 22.5 6.28125 22.5L4.96875 22.5Q4.46406 22.5 4.10703 22.143Q3.75 21.7859 3.75 21.2812L3.75 20.25ZM16.5 20.25C16.5 19.8358 16.8358 19.5 17.25 19.5C17.6642 19.5 18 19.8358 18 20.25L18 21L18.75 21L18.75 20.25C18.75 19.8358 19.0858 19.5 19.5 19.5C19.9142 19.5 20.25 19.8358 20.25 20.25L20.25 21.2812Q20.25 21.7859 19.893 22.143Q19.5359 22.5 19.0312 22.5L17.7188 22.5Q17.2141 22.5 16.857 22.143Q16.5 21.7859 16.5 21.2812L16.5 20.25Z" fill-rule="evenodd" fill="rgb(75, 85, 99)"/>
		<path transform="matrix(1 0 0 1 0 0)" d="M17.25 17.25L17.25 17.25L17.25 17.25L17.25 17.25L17.25 17.25L17.25 15.75Q17.8711 15.75 18.3106 16.1894Q18.75 16.6289 18.75 17.25Q18.75 17.8711 18.3106 18.3106Q17.8711 18.75 17.25 18.75Q16.6289 18.75 16.1894 18.3106Q15.75 17.8711 15.75 17.25Q15.75 16.6289 16.1894 16.1894Q16.6289 15.75 17.25 15.75L17.25 17.25Z" fill-rule="nonzero" fill="rgb(75, 85, 99)"/>
		<path transform="matrix(1 0 0 1 0 0)" d="M6.75 17.25L6.75 17.25L6.75 17.25L6.75 17.25L6.75 17.25L6.75 15.75Q7.37111 15.75 7.81056 16.1894Q8.25 16.6289 8.25 17.25Q8.25 17.8711 7.81056 18.3106Q7.37111 18.75 6.75 18.75Q6.12889 18.75 5.68944 18.3106Q5.25 17.8711 5.25 17.25Q5.25 16.6289 5.68944 16.1894Q6.12889 15.75 6.75 15.75L6.75 17.25Z" fill-rule="nonzero" fill="rgb(75, 85, 99)"/>
		<path transform="matrix(1 0 0 1 0 0)" d="M3.75 3C3.33579 3 3 3.33579 3 3.75L3 17.25C3 17.6642 3.33579 18 3.75 18C4.16421 18 4.5 17.6642 4.5 17.25L4.5 3.75C4.5 3.33579 4.16421 3 3.75 3ZM20.25 3C19.8358 3 19.5 3.33579 19.5 3.75L19.5 17.25C19.5 17.6642 19.8358 18 20.25 18C20.6642 18 21 17.6642 21 17.25L21 3.75C21 3.33579 20.6642 3 20.25 3ZM12 4.5C11.5858 4.5 11.25 4.83579 11.25 5.25L11.25 14.25C11.25 14.6642 11.5858 15 12 15C12.4142 15 12.75 14.6642 12.75 14.25L12.75 5.25C12.75 4.83579 12.4142 4.5 12 4.5Z" fill-rule="evenodd" fill="rgb(75, 85, 99)"/>
	</g>
</svg>
