<?xml version="1.0" encoding="utf-8" ?>
<svg xmlns="http://www.w3.org/2000/svg" xmlns:xlink="http://www.w3.org/1999/xlink" width="40" height="40" viewBox="0 0 40 40">
	<path transform="matrix(1 0 0 1 0 0)" d="M20 0C8.9543 0 0 8.9543 0 20L0 20.03C0 31.0757 8.92431 40 19.97 40L20 40C31.0457 40 40 31.0757 40 20.03L40 20C40 8.9543 31.0757 0 20.03 0L20 0Z" fill-rule="nonzero" fill="rgb(219, 234, 254)"/>
	<defs>
		<clipPath id="clipPath6746772870">
			<path transform="matrix(1 0 0 1 10 10)" d="M0 0L20 0L20 20L0 20L0 0Z" fill-rule="nonzero"/>
		</clipPath>
	</defs>
	<g clip-path="url(#clipPath6746772870)">
		<path transform="matrix(1 0 0 1 10 10)" d="M3.4375 3.125L16.5625 3.125Q17.007 3.125 17.4141 3.2973Q17.8066 3.46346 18.1091 3.76592Q18.4115 4.06839 18.5777 4.46093Q18.75 4.86801 18.75 5.3125L18.75 14.6875Q18.75 15.132 18.5777 15.5391Q18.4115 15.9316 18.1091 16.2341Q17.8066 16.5365 17.4141 16.7027Q17.007 16.875 16.5625 16.875L3.4375 16.875Q2.99301 16.875 2.58593 16.7027Q2.19339 16.5365 1.89092 16.2341Q1.58846 15.9316 1.4223 15.5391Q1.25 15.132 1.25 14.6875L1.25 5.3125Q1.25 4.86801 1.4223 4.46093Q1.58846 4.06838 1.89092 3.76592Q2.19338 3.46346 2.58593 3.29731Q2.99301 3.125 3.4375 3.125ZM3.4375 4.375Q3.04961 4.375 2.7748 4.6498Q2.5 4.92461 2.5 5.3125L2.5 14.6875Q2.5 15.0754 2.7748 15.3502Q3.04961 15.625 3.4375 15.625L16.5625 15.625Q16.9504 15.625 17.2252 15.3502Q17.5 15.0754 17.5 14.6875L17.5 5.3125Q17.5 4.92461 17.2252 4.6498Q16.9504 4.375 16.5625 4.375L3.4375 4.375Z" fill-rule="evenodd" fill="rgb(59, 130, 246)"/>
		<path transform="matrix(1 0 0 1 10 10)" d="M3.99129 6.74335C3.71882 6.53143 3.66974 6.13875 3.88165 5.86629C4.09357 5.59382 4.48625 5.54474 4.75871 5.75665L10 9.83321L15.2413 5.75665C15.5138 5.54474 15.9064 5.59382 16.1183 5.86629C16.3303 6.13875 16.2812 6.53143 16.0087 6.74335L10.3837 11.1183Q10.3429 11.1501 10.2973 11.1747Q10.2518 11.1994 10.2028 11.2162Q10.1539 11.233 10.1028 11.2415Q10.0518 11.25 10 11.25Q9.94824 11.25 9.89718 11.2415Q9.84612 11.233 9.79716 11.2162Q9.7482 11.1994 9.70267 11.1747Q9.65715 11.1501 9.61629 11.1183L3.99129 6.74335Z" fill-rule="evenodd" fill="rgb(59, 130, 246)"/>
	</g>
</svg>
