<?xml version="1.0" encoding="utf-8" ?>
<svg xmlns="http://www.w3.org/2000/svg" xmlns:xlink="http://www.w3.org/1999/xlink" width="24" height="24" viewBox="0 0 24 24">
	<defs>
		<clipPath id="clipPath4518732941">
			<path transform="matrix(1 0 0 1 0 0)" d="M0 0L24 0L24 24L0 24L0 0Z" fill-rule="nonzero"/>
		</clipPath>
	</defs>
	<g clip-path="url(#clipPath4518732941)">
		<path transform="matrix(1 0 0 1 0 0)" d="M4.125 3.75L19.875 3.75Q20.4084 3.75 20.8969 3.95677Q21.3679 4.15615 21.7309 4.5191Q22.0938 4.88206 22.2932 5.35312Q22.5 5.84162 22.5 6.375L22.5 17.625Q22.5 18.1584 22.2932 18.6469Q22.0938 19.1179 21.7309 19.4809Q21.3679 19.8438 20.8969 20.0432Q20.4084 20.25 19.875 20.25L4.125 20.25Q3.59162 20.25 3.10312 20.0432Q2.63206 19.8439 2.2691 19.4809Q1.90615 19.1179 1.70677 18.6469Q1.5 18.1584 1.5 17.625L1.5 6.375Q1.5 5.84162 1.70677 5.35312Q1.90615 4.88206 2.2691 4.5191Q2.63206 4.15615 3.10312 3.95677Q3.59162 3.75 4.125 3.75ZM4.125 5.25Q3.65953 5.25 3.32976 5.57976Q3 5.90953 3 6.375L3 17.625Q3 18.0905 3.32976 18.4202Q3.65953 18.75 4.125 18.75L19.875 18.75Q20.3405 18.75 20.6702 18.4202Q21 18.0905 21 17.625L21 6.375Q21 5.90953 20.6702 5.57976Q20.3405 5.25 19.875 5.25L4.125 5.25Z" fill-rule="evenodd" fill="rgb(156, 163, 175)"/>
		<path transform="matrix(1 0 0 1 0 0)" d="M4.65799 7.03954C4.40369 7.3665 4.46259 7.83771 4.78954 8.09201L11.5395 13.342Q11.5886 13.3801 11.6432 13.4097Q11.6978 13.4392 11.7566 13.4594Q11.8153 13.4796 11.8766 13.4898Q11.9379 13.5 12 13.5Q12.0621 13.5 12.1234 13.4898Q12.1847 13.4796 12.2434 13.4594Q12.3022 13.4392 12.3568 13.4097Q12.4114 13.3801 12.4605 13.342L19.2105 8.09201C19.5374 7.83771 19.5963 7.3665 19.342 7.03954C19.0877 6.71259 18.6165 6.65369 18.2895 6.90799L12 11.7999L5.71046 6.90799C5.3835 6.65369 4.91229 6.71259 4.65799 7.03954Z" fill-rule="evenodd" fill="rgb(156, 163, 175)"/>
	</g>
</svg>
