<?xml version="1.0" encoding="utf-8" ?>
<svg xmlns="http://www.w3.org/2000/svg" xmlns:xlink="http://www.w3.org/1999/xlink" width="24" height="24" viewBox="0 0 24 24">
	<defs>
		<clipPath id="clipPath3072399566">
			<path transform="matrix(1 0 0 1 -3.62396e-05 0)" d="M0 0L24 0L24 24L0 24L0 0Z" fill-rule="nonzero"/>
		</clipPath>
	</defs>
	<g clip-path="url(#clipPath3072399566)">
		<path transform="matrix(1 0 0 1 -3.62396e-05 0)" d="M20.25 12Q20.25 10.3218 19.6018 8.78982Q18.9754 7.3095 17.833 6.16705Q16.6905 5.0246 15.2102 4.39823Q13.6782 3.75 12 3.75Q10.3218 3.75 8.78982 4.39823Q7.3095 5.0246 6.16705 6.16705Q5.0246 7.3095 4.39823 8.78982Q3.75 10.3218 3.75 12Q3.75 13.6782 4.39823 15.2102Q5.0246 16.6905 6.16705 17.833Q7.3095 18.9754 8.78982 19.6018Q10.3218 20.25 12 20.25Q13.6782 20.25 15.2102 19.6018Q16.6905 18.9754 17.833 17.833Q18.9754 16.6905 19.6018 15.2102Q20.25 13.6782 20.25 12L21.75 12Q21.75 13.9825 20.9832 15.7947Q20.2429 17.5444 18.8936 18.8936Q17.5444 20.2429 15.7947 20.9832Q13.9825 21.75 12 21.75Q10.0175 21.75 8.2053 20.9832Q6.45563 20.2429 5.10639 18.8936Q3.75714 17.5444 3.01681 15.7947Q2.25 13.9825 2.25 12Q2.25 10.0175 3.01681 8.2053Q3.75714 6.45564 5.10639 5.10639Q6.45564 3.75714 8.2053 3.01681Q10.0175 2.25 12 2.25Q13.9825 2.25 15.7947 3.01681Q17.5444 3.75714 18.8936 5.10639Q20.2429 6.45563 20.9832 8.2053Q21.75 10.0175 21.75 12L20.25 12Z" fill-rule="nonzero" fill="rgb(43, 100, 245)"/>
		<path transform="matrix(1 0 0 1 -3.62396e-05 0)" d="M16.4377 7.07484L10.9439 9.27234C10.1814 9.57727 9.57727 10.1814 9.27234 10.9439L7.07484 16.4377C7.01909 16.577 7.05173 16.7361 7.15782 16.8422C7.26392 16.9483 7.42305 16.9809 7.56234 16.9252L13.0561 14.7277C13.8186 14.4227 14.4227 13.8186 14.7277 13.0561L16.9252 7.56234C16.9809 7.42305 16.9483 7.26392 16.8422 7.15782C16.7361 7.05173 16.577 7.01909 16.4377 7.07484M12 13.125C11.3791 13.125 10.875 12.6209 10.875 12C10.875 11.3791 11.3791 10.875 12 10.875C12.6209 10.875 13.125 11.3791 13.125 12C13.125 12.6209 12.6209 13.125 12 13.125" fill-rule="nonzero" fill="rgb(43, 100, 245)"/>
	</g>
</svg>
