<?xml version="1.0" encoding="utf-8" ?>
<svg xmlns="http://www.w3.org/2000/svg" xmlns:xlink="http://www.w3.org/1999/xlink" width="24" height="24" viewBox="0 0 24 24">
	<defs>
		<clipPath id="clipPath4976532510">
			<path transform="matrix(1 0 0 1 0 0)" d="M0 0L24 0L24 24L0 24L0 0Z" fill-rule="nonzero"/>
		</clipPath>
	</defs>
	<g clip-path="url(#clipPath4976532510)">
		<path transform="matrix(1 0 0 1 0 0)" d="M11.9841 4.5Q15.3007 4.5 18.3551 6.47219Q19.7334 7.36208 20.9388 8.59239Q22.0989 9.77639 23.0111 11.1853Q23.2508 11.5578 23.2508 12.0007Q23.2508 12.4436 23.0126 12.8138Q22.1043 14.2362 20.9472 15.4244Q19.7471 16.6568 18.3686 17.5443Q15.3311 19.5 11.9841 19.5Q8.61063 19.5 5.5948 17.5486Q2.88002 15.7921 0.990045 12.8336Q0.743218 12.4515 0.750128 11.9968Q0.757038 11.542 1.01755 11.1645Q3.28193 7.91864 6.15886 6.19275Q8.98055 4.5 11.9841 4.5ZM11.9841 6Q9.39598 6 6.93052 7.47904Q4.33001 9.0391 2.24996 12.0196Q3.96859 14.7098 6.40966 16.2893Q9.05359 18 11.9841 18Q14.89 18 17.5565 16.2831Q18.7916 15.488 19.8726 14.3779Q20.9226 13.2996 21.7484 12.0065Q21.7521 12.0007 21.7498 11.9972Q20.9218 10.7183 19.8674 9.64216Q18.7791 8.53142 17.5415 7.73234Q14.8585 6 11.9841 6Z" fill-rule="evenodd" fill="rgb(156, 163, 175)"/>
		<path transform="matrix(1 0 0 1 0 0)" d="M12 9Q11.3898 9 10.8333 9.23557Q10.295 9.46339 9.8792 9.8792Q9.46339 10.295 9.23557 10.8333Q9 11.3898 9 12Q9 12.6102 9.23557 13.1667Q9.46339 13.705 9.8792 14.1208Q10.295 14.5366 10.8333 14.7644Q11.3898 15 12 15Q12.6102 15 13.1667 14.7644Q13.705 14.5366 14.1208 14.1208Q14.5366 13.705 14.7644 13.1667Q15 12.6102 15 12Q15 11.3898 14.7644 10.8333Q14.5366 10.295 14.1208 9.8792Q13.705 9.46339 13.1667 9.23557Q12.6102 9 12 9L12 7.5Q12.9146 7.5 13.7514 7.85421Q14.5589 8.19599 15.1815 8.81854Q15.804 9.44109 16.1458 10.2486Q16.5 11.0854 16.5 12Q16.5 12.9146 16.1458 13.7514Q15.804 14.5589 15.1815 15.1815Q14.5589 15.804 13.7514 16.1458Q12.9146 16.5 12 16.5Q11.0854 16.5 10.2486 16.1458Q9.44109 15.804 8.81854 15.1815Q8.19599 14.5589 7.85421 13.7514Q7.5 12.9146 7.5 12Q7.5 11.0854 7.85421 10.2486Q8.19599 9.44108 8.81854 8.81854Q9.44108 8.19599 10.2486 7.85421Q11.0854 7.5 12 7.5L12 9Z" fill-rule="nonzero" fill="rgb(156, 163, 175)"/>
	</g>
</svg>
