<?xml version="1.0" encoding="utf-8" ?>
<svg xmlns="http://www.w3.org/2000/svg" xmlns:xlink="http://www.w3.org/1999/xlink" width="20" height="20" viewBox="0 0 20 20">
	<defs>
		<clipPath id="clipPath7142562241">
			<path transform="matrix(1 0 0 1 0 0)" d="M0 0L20 0L20 20L0 20L0 0Z" fill-rule="nonzero"/>
		</clipPath>
	</defs>
	<g clip-path="url(#clipPath7142562241)">
		<path transform="matrix(1 0 0 1 0 0)" d="M18.4375 6.5625L1.5625 6.5625C1.04508 6.5625 0.625 6.14242 0.625 5.625C0.625 5.10758 1.04508 4.6875 1.5625 4.6875L18.4375 4.6875C18.9549 4.6875 19.375 5.10758 19.375 5.625C19.375 6.14242 18.9549 6.5625 18.4375 6.5625M15.3125 10.9375L4.6875 10.9375C4.17008 10.9375 3.75 10.5174 3.75 10C3.75 9.48258 4.17008 9.0625 4.6875 9.0625L15.3125 9.0625C15.8299 9.0625 16.25 9.48258 16.25 10C16.25 10.5174 15.8299 10.9375 15.3125 10.9375M11.5625 15.3125L8.4375 15.3125C7.92008 15.3125 7.5 14.8924 7.5 14.375C7.5 13.8576 7.92008 13.4375 8.4375 13.4375L11.5625 13.4375C12.0799 13.4375 12.5 13.8576 12.5 14.375C12.5 14.8924 12.0799 15.3125 11.5625 15.3125" fill-rule="nonzero" fill="rgb(156, 163, 175)"/>
	</g>
</svg>
