<?xml version="1.0" encoding="utf-8" ?>
<svg xmlns="http://www.w3.org/2000/svg" xmlns:xlink="http://www.w3.org/1999/xlink" width="44" height="44" viewBox="0 0 44 44">
	<path transform="matrix(1 0 0 1 0 0)" d="M22 0C9.84974 0 0 9.84974 0 22L0 22.033C0 34.1833 9.81674 44 21.967 44L22 44C34.1503 44 44 34.1833 44 22.033L44 22C44 9.84974 34.1833 0 22.033 0L22 0Z" fill-rule="nonzero" fill="rgb(219, 234, 254)"/>
	<defs>
		<clipPath id="clipPath4487114269">
			<path transform="matrix(1 0 0 1 0 0)" d="M22 0C9.84974 0 0 9.84974 0 22L0 22.033C0 34.1833 9.81674 44 21.967 44L22 44C34.1503 44 44 34.1833 44 22.033L44 22C44 9.84974 34.1833 0 22.033 0L22 0Z" fill-rule="nonzero"/>
		</clipPath>
	</defs>
	<g clip-path="url(#clipPath4487114269)">
		<defs>
			<clipPath id="clipPath1750737434">
				<path transform="matrix(1 0 0 1 1.52588e-05 -2.74997)" d="M0 0L44 0L44 49.5L0 49.5L0 0Z" fill-rule="nonzero"/>
			</clipPath>
		</defs>
		<g clip-path="url(#clipPath1750737434)">
			<defs>
				<clipPath id="clipPath8399425387">
					<path transform="matrix(1 0 0 1 1.52588e-05 -3.24997)" d="M0 0L50 0L50 50L0 50L0 0Z" fill-rule="nonzero"/>
				</clipPath>
			</defs>
			<g clip-path="url(#clipPath8399425387)">
				<path transform="matrix(1 0 0 1 13.5 11.5)" d="M13.2513 0L13.2513 2.2L15.3408 2.2L13.5334 4.0545C12.8034 3.18003 11.9288 2.50223 10.9094 2.02111C9.89007 1.53999 8.81941 1.29962 7.69744 1.3C3.45313 1.3 0 4.844 0 9.2C0 13.183 2.88703 16.486 6.62564 17.023L6.62564 18.9L4.18975 18.9L4.18975 21.1L6.62564 21.1L6.62564 24L8.76923 24L8.76923 21.1L11.2051 21.1L11.2051 18.9L8.76923 18.9L8.76923 17.023C12.5079 16.486 15.3949 13.183 15.3949 9.19999C15.3951 8.64016 15.3378 8.08662 15.2228 7.53936C15.1078 6.9921 14.9378 6.46348 14.7128 5.9535L16.8564 3.7535L16.8564 5.9L19 5.9L19 0L13.2513 0ZM7.69744 14.9C6.16379 14.9 4.85473 14.3435 3.77027 13.2305C2.68582 12.1175 2.14359 10.774 2.14359 9.2C2.14359 7.62598 2.68582 6.28248 3.77028 5.16949C4.85473 4.05649 6.16379 3.5 7.69744 3.5C9.23109 3.5 10.5401 4.05649 11.6246 5.16949C12.7091 6.28248 13.2513 7.62598 13.2513 9.2C13.2495 10.7733 12.7067 12.1161 11.6228 13.2286C10.5388 14.3411 9.23037 14.8982 7.69744 14.9Z" fill-rule="nonzero" fill="rgb(59, 130, 246)"/>
			</g>
		</g>
	</g>
</svg>
