<?xml version="1.0" encoding="utf-8" ?>
<svg xmlns="http://www.w3.org/2000/svg" xmlns:xlink="http://www.w3.org/1999/xlink" width="20" height="20" viewBox="0 0 20 20">
	<defs>
		<clipPath id="clipPath6409470487">
			<path transform="matrix(1 0 0 1 0 0)" d="M0 0L20 0L20 20L0 20L0 0Z" fill-rule="nonzero"/>
		</clipPath>
	</defs>
	<g clip-path="url(#clipPath6409470487)">
		<path transform="matrix(1 0 0 1 0 0)" d="M10 3.75Q8.72911 3.75 7.56863 4.24119Q6.44722 4.71585 5.58154 5.58154Q4.71585 6.44722 4.24119 7.56863Q3.75 8.72912 3.75 10Q3.75 11.2709 4.24119 12.4314Q4.71585 13.5528 5.58154 14.4185Q6.44722 15.2841 7.56863 15.7588Q8.72912 16.25 10 16.25Q11.2709 16.25 12.4314 15.7588Q13.5528 15.2842 14.4185 14.4185Q15.2841 13.5528 15.7588 12.4314Q16.25 11.2709 16.25 10Q16.25 8.72803 15.7591 7.56741Q15.2847 6.44591 14.4194 5.58058Q13.5541 4.71525 12.4326 4.2409Q11.272 3.75 10 3.75L10 2.5Q11.5255 2.5 12.9195 3.08964Q14.2656 3.65897 15.3033 4.6967Q16.341 5.73443 16.9104 7.08047Q17.5 8.47455 17.5 10Q17.5 11.5245 16.9099 12.9186Q16.3403 14.2644 15.3023 15.3023Q14.2644 16.3403 12.9186 16.9099Q11.5245 17.5 10 17.5Q8.47547 17.5 7.08139 16.9099Q5.73561 16.3403 4.69765 15.3023Q3.65969 14.2644 3.09006 12.9186Q2.5 11.5245 2.5 10Q2.5 8.47546 3.09006 7.08139Q3.65969 5.73562 4.69765 4.69765Q5.73562 3.65969 7.08139 3.09006Q8.47547 2.5 10 2.5L10 3.75Z" fill-rule="nonzero" fill="rgb(75, 85, 99)"/>
		<path transform="matrix(1 0 0 1 0 0)" d="M7.63221 7.38549Q7.66127 7.1843 7.7033 7.03804Q7.85558 6.50818 8.23413 6.20361Q8.93258 5.64095 9.9918 5.62506Q10.7738 5.61504 11.2714 5.85192Q11.8108 6.10866 12.1592 6.4839Q12.7344 7.10343 12.7344 7.95078Q12.7344 8.83453 12.1771 9.48831Q11.9653 9.7368 11.6426 9.9864Q11.4496 10.1357 11.0714 10.3894Q10.652 10.6706 10.484 10.9841Q10.3516 11.2311 10.3516 11.5625C10.3516 11.8645 10.1067 12.1094 9.80469 12.1094C9.50266 12.1094 9.25781 11.8645 9.25781 11.5625Q9.25781 10.2887 10.4622 9.48096Q11.1251 9.03641 11.3447 8.77878Q11.6406 8.43162 11.6406 7.95078Q11.6406 7.23902 10.8013 6.83949Q10.5334 6.71196 10.0082 6.71869Q9.32549 6.72893 8.91977 7.05577Q8.8111 7.14321 8.7545 7.34015Q8.71028 7.49402 8.68517 7.81846Q8.6715 7.99513 8.65827 8.07422Q8.61027 8.36107 8.42749 8.51483Q8.21941 8.68987 7.94952 8.64623Q7.79845 8.6218 7.66227 8.52347Q7.53913 8.43457 7.38642 8.24477C7.19708 8.00946 7.23436 7.66521 7.46968 7.47587C7.51977 7.43557 7.57479 7.40554 7.63221 7.38549Z" fill-rule="evenodd" fill="rgb(75, 85, 99)"/>
		<path transform="matrix(1 0 0 1 0 0)" d="M9.76562 12.8125C9.33444 12.8125 8.98438 13.1626 8.98438 13.5938C8.98438 14.0249 9.33444 14.375 9.76562 14.375C10.1968 14.375 10.5469 14.0249 10.5469 13.5938C10.5469 13.1626 10.1968 12.8125 9.76562 12.8125" fill-rule="nonzero" fill="rgb(75, 85, 99)"/>
	</g>
</svg>
