<?xml version="1.0" encoding="utf-8" ?>
<svg xmlns="http://www.w3.org/2000/svg" xmlns:xlink="http://www.w3.org/1999/xlink" width="24" height="24" viewBox="0 0 24 24">
	<defs>
		<clipPath id="clipPath9296609345">
			<path transform="matrix(1 0 0 1 0 0)" d="M0 0L24 0L24 24L0 24L0 0Z" fill-rule="nonzero"/>
		</clipPath>
	</defs>
	<g clip-path="url(#clipPath9296609345)">
		<path transform="matrix(1 0 0 1 0 0)" d="M3.75 9.1875C3.33579 9.1875 3 9.52329 3 9.9375L3 21Q3 21.6211 3.43944 22.0606Q3.87889 22.5 4.5 22.5L9 22.5Q9.07387 22.5 9.14632 22.4856Q9.21877 22.4712 9.28701 22.4429Q9.35526 22.4146 9.41668 22.3736Q9.4781 22.3326 9.53033 22.2803Q9.58256 22.2281 9.6236 22.1667Q9.66464 22.1053 9.69291 22.037Q9.72118 21.9688 9.73559 21.8963Q9.75 21.8239 9.75 21.75L9.75 15.375Q9.75 15.22 9.85999 15.11Q9.96998 15 10.125 15L13.875 15Q14.03 15 14.14 15.11Q14.25 15.22 14.25 15.375L14.25 21.75Q14.25 21.8239 14.2644 21.8963Q14.2788 21.9688 14.3071 22.037Q14.3354 22.1053 14.3764 22.1667Q14.4174 22.2281 14.4697 22.2803Q14.5219 22.3326 14.5833 22.3736Q14.6447 22.4146 14.713 22.4429Q14.7812 22.4712 14.8537 22.4856Q14.9261 22.5 15 22.5L19.5 22.5Q20.1211 22.5 20.5606 22.0606Q21 21.6211 21 21L21 9.9375C21 9.52329 20.6642 9.1875 20.25 9.1875C19.8358 9.1875 19.5 9.52329 19.5 9.9375L19.5 21L15.75 21L15.75 15.375Q15.75 14.5987 15.2007 14.0493Q14.6513 13.5 13.875 13.5L10.125 13.5Q9.34866 13.5 8.79933 14.0493Q8.25 14.5987 8.25 15.375L8.25 21L4.5 21L4.5 9.9375C4.5 9.52329 4.16421 9.1875 3.75 9.1875Z" fill-rule="evenodd" fill="rgb(37, 99, 235)"/>
		<path transform="matrix(1 0 0 1 0 0)" d="M21.9814 12.5418L12.0149 3.00131Q12.0082 3.00083 12.0002 3.00082Q11.992 3.0008 11.9852 3.00129L2.01862 12.5418C1.71941 12.8282 1.24464 12.8178 0.958216 12.5186C0.671791 12.2194 0.68216 11.7446 0.981376 11.4582L10.9608 1.90538Q11.3589 1.49967 12.0029 1.50082Q12.6451 1.50197 13.0399 1.90604L15.75 4.50031L15.75 3Q15.75 2.92613 15.7644 2.85368Q15.7788 2.78123 15.8071 2.71299Q15.8354 2.64474 15.8764 2.58332Q15.9174 2.5219 15.9697 2.46967Q16.0219 2.41744 16.0833 2.3764Q16.1447 2.33536 16.213 2.30709Q16.2812 2.27882 16.3537 2.26441Q16.4261 2.25 16.5 2.25L18.75 2.25Q18.8239 2.25 18.8963 2.26441Q18.9688 2.27882 19.037 2.30709Q19.1053 2.33536 19.1667 2.3764Q19.2281 2.41744 19.2803 2.46967Q19.3326 2.5219 19.3736 2.58332Q19.4146 2.64474 19.4429 2.71299Q19.4712 2.78123 19.4856 2.85368Q19.5 2.92613 19.5 3L19.5 8.09001L23.0186 11.4582C23.3178 11.7446 23.3282 12.2194 23.0418 12.5186C22.7554 12.8178 22.2806 12.8282 21.9814 12.5418ZM18 3.75L18 6.65413L17.25 5.93619L17.25 3.75L18 3.75Z" fill-rule="evenodd" fill="rgb(37, 99, 235)"/>
	</g>
</svg>
