<?xml version="1.0" encoding="utf-8" ?>
<svg xmlns="http://www.w3.org/2000/svg" xmlns:xlink="http://www.w3.org/1999/xlink" width="20" height="20" viewBox="0 0 20 20">
	<defs>
		<clipPath id="clipPath5493741021">
			<path transform="matrix(1 0 0 1 0 0)" d="M0 0L20 0L20 20L0 20L0 0Z" fill-rule="nonzero"/>
		</clipPath>
	</defs>
	<g clip-path="url(#clipPath5493741021)">
		<path transform="matrix(1 0 0 1 0 0)" d="M6.875 2.5C6.875 2.15482 7.15483 1.875 7.5 1.875C7.84517 1.875 8.125 2.15482 8.125 2.5L8.125 3.75L9.06546 3.75Q9.24205 3.49666 9.49183 3.36707Q9.79706 3.20872 10.1604 3.25602Q10.6208 3.31597 11.2033 3.75L13.125 3.75C13.4702 3.75 13.75 4.02983 13.75 4.375C13.75 4.72017 13.4702 5 13.125 5L9.9217 5Q9.91405 5.03985 9.90656 5.08225Q9.8476 5.41633 9.7585 6.2762Q9.58981 7.90417 9.38539 8.75512Q9.01793 10.2848 8.25746 11.2157Q6.79888 13.0012 4.98838 14.4396Q4.07561 15.1647 3.44266 15.5383C3.14539 15.7137 2.76218 15.6149 2.58675 15.3177C2.41131 15.0204 2.51007 14.6372 2.80734 14.4617Q3.3658 14.1322 4.21083 13.4608Q5.91597 12.1062 7.28941 10.4249Q7.86921 9.71515 8.16997 8.46315Q8.35501 7.69284 8.51515 6.14736Q8.59381 5.38831 8.65346 5L1.875 5C1.52982 5 1.25 4.72017 1.25 4.375C1.25 4.02983 1.52982 3.75 1.875 3.75L6.875 3.75L6.875 2.5ZM13.8005 8.5038L10.0505 17.2538C9.91456 17.5711 10.0615 17.9385 10.3788 18.0745C10.6961 18.2104 11.0635 18.0635 11.1995 17.7462L12.1086 15.625L16.6414 15.625L17.5505 17.7462C17.6865 18.0635 18.0539 18.2104 18.3712 18.0745C18.6885 17.9385 18.8354 17.5711 18.6995 17.2538L14.9495 8.5038Q14.9021 8.39317 14.8169 8.30806Q14.7318 8.22295 14.6212 8.17553Q14.5646 8.15129 14.5044 8.13854Q14.4442 8.1258 14.3826 8.12505Q14.3211 8.1243 14.2606 8.13557Q14.2 8.14684 14.1429 8.1697Q14.0857 8.19256 14.0341 8.22614Q13.9825 8.25971 13.9385 8.3027Q13.8944 8.3457 13.8596 8.39646Q13.8248 8.44722 13.8005 8.5038ZM16.1057 14.375L14.375 10.3366L12.6443 14.375L16.1057 14.375Z" fill-rule="evenodd" fill="rgb(75, 85, 99)"/>
		<path transform="matrix(1 0 0 1 0 0)" d="M4.44402 7.1605C4.28634 6.85345 4.40744 6.4767 4.7145 6.31902C5.02155 6.16134 5.3983 6.28244 5.55598 6.5895Q5.73056 6.92946 6.08419 7.50471Q6.79933 8.668 7.68251 9.81375Q8.02032 10.252 8.62304 10.5959Q8.99831 10.8101 9.75458 11.1125Q10.2384 11.306 10.4369 11.4077Q10.8676 11.6283 11.0475 11.9122Q11.5559 12.7148 10.3816 13.62C10.1082 13.8307 9.71573 13.7799 9.50499 13.5066C9.29426 13.2332 9.34505 12.8407 9.61843 12.63Q9.72181 12.5503 9.79551 12.4856Q9.6327 12.41 9.29039 12.2731Q8.45386 11.9386 8.00352 11.6816Q7.18324 11.2135 6.69249 10.5769Q5.76902 9.37886 5.01932 8.15935Q4.64054 7.54319 4.44402 7.1605Z" fill-rule="evenodd" fill="rgb(75, 85, 99)"/>
	</g>
</svg>
