<?xml version="1.0" encoding="utf-8" ?>
<svg xmlns="http://www.w3.org/2000/svg" xmlns:xlink="http://www.w3.org/1999/xlink" width="24" height="24" viewBox="0 0 24 24">
	<defs>
		<clipPath id="clipPath3879633506">
			<path transform="matrix(1 0 0 1 0 0)" d="M0 0L24 0L24 24L0 24L0 0Z" fill-rule="nonzero"/>
		</clipPath>
	</defs>
	<g clip-path="url(#clipPath3879633506)">
		<path transform="matrix(1 0 0 1 0 0)" d="M14.5795 4.4545C15.0188 4.01517 15.7312 4.01517 16.1705 4.4545C16.6098 4.89384 16.6098 5.60616 16.1705 6.0455L10.216 12L16.1705 17.9545C16.6098 18.3938 16.6098 19.1062 16.1705 19.5455C15.7312 19.9848 15.0188 19.9848 14.5795 19.5455L7.8295 12.7955Q7.79043 12.7564 7.75536 12.7137Q7.7203 12.671 7.6896 12.625Q7.65889 12.5791 7.63284 12.5303Q7.60679 12.4816 7.58564 12.4305Q7.56449 12.3795 7.54844 12.3266Q7.5324 12.2737 7.52162 12.2195Q7.51083 12.1653 7.50542 12.1103Q7.5 12.0553 7.5 12Q7.5 11.9447 7.50542 11.8897Q7.51083 11.8347 7.52162 11.7805Q7.5324 11.7263 7.54844 11.6734Q7.56449 11.6205 7.58564 11.5695Q7.60679 11.5184 7.63284 11.4697Q7.65889 11.4209 7.6896 11.375Q7.7203 11.329 7.75536 11.2863Q7.79043 11.2436 7.8295 11.2045L14.5795 4.4545Z" fill-rule="evenodd" fill="rgb(31, 41, 55)"/>
	</g>
</svg>
