<?xml version="1.0" encoding="utf-8" ?>
<svg xmlns="http://www.w3.org/2000/svg" xmlns:xlink="http://www.w3.org/1999/xlink" width="40" height="40" viewBox="0 0 40 40">
	<path transform="matrix(1 0 0 1 0 0)" d="M20 0C8.9543 0 0 8.9543 0 20L0 20.03C0 31.0757 8.92431 40 19.97 40L20 40C31.0457 40 40 31.0757 40 20.03L40 20C40 8.9543 31.0757 0 20.03 0L20 0Z" fill-rule="nonzero" fill="rgb(219, 234, 254)"/>
	<defs>
		<clipPath id="clipPath6765126470">
			<path transform="matrix(1 0 0 1 10 10)" d="M0 0L20 0L20 20L0 20L0 0Z" fill-rule="nonzero"/>
		</clipPath>
	</defs>
	<g clip-path="url(#clipPath6765126470)">
		<path transform="matrix(1 0 0 1 10 10)" d="M10 2.5Q8.9772 2.5 8.04443 2.87561Q7.14592 3.23741 6.45378 3.896Q5.76498 4.5514 5.38826 5.39836Q5 6.27129 5 7.22656Q5 9.26737 6.96888 12.8227Q8.23269 15.1048 10 17.4931Q11.7685 15.1038 13.0311 12.824Q15 9.26913 15 7.22656Q15 6.27129 14.6117 5.39836Q14.235 4.5514 13.5462 3.896Q12.8541 3.23741 11.9556 2.87561Q11.0228 2.5 10 2.5ZM12.4225 1.71608Q11.2655 1.25021 10.0012 1.25L10 1.25Q8.73498 1.25 7.57752 1.71608Q6.45737 2.16714 5.59212 2.99043Q4.72364 3.81679 4.24614 4.89037Q3.75 6.00584 3.75 7.22656Q3.75 9.59037 5.87536 13.4283Q7.18057 15.7852 8.99961 18.2426Q9.17181 18.4792 9.43708 18.6142Q9.70235 18.7492 10 18.7492Q10.2977 18.7492 10.5629 18.6142Q10.8282 18.4792 11.0034 18.2385Q12.8194 15.7862 14.1246 13.4296Q16.25 9.59216 16.25 7.22656Q16.25 6.00584 15.7539 4.89037Q15.2764 3.8168 14.4079 2.99043Q13.5426 2.16714 12.4225 1.71608Z" fill-rule="evenodd" fill="rgb(59, 130, 246)"/>
		<path transform="matrix(1 0 0 1 10 10)" d="M10 5Q10.508 5 10.9732 5.19688Q11.4218 5.38676 11.7675 5.73249Q12.1132 6.07822 12.3031 6.52684Q12.5 6.99198 12.5 7.5Q12.5 8.00802 12.3031 8.47316Q12.1132 8.92178 11.7675 9.26751Q11.4218 9.61323 10.9732 9.80312Q10.508 10 10 10Q9.49198 10 9.02684 9.80312Q8.57822 9.61324 8.23249 9.26751Q7.88677 8.92178 7.69688 8.47316Q7.5 8.00802 7.5 7.5Q7.5 6.99198 7.69688 6.52684Q7.88676 6.07822 8.23249 5.73249Q8.57822 5.38677 9.02684 5.19688Q9.49198 5 10 5ZM10 6.25Q9.48275 6.25 9.11638 6.61638Q8.75 6.98275 8.75 7.5Q8.75 8.01725 9.11638 8.38362Q9.48275 8.75 10 8.75Q10.5172 8.75 10.8836 8.38362Q11.25 8.01725 11.25 7.5Q11.25 6.98275 10.8836 6.61638Q10.5172 6.25 10 6.25Z" fill-rule="evenodd" fill="rgb(59, 130, 246)"/>
	</g>
</svg>
