<?xml version="1.0" encoding="utf-8" ?>
<svg xmlns="http://www.w3.org/2000/svg" xmlns:xlink="http://www.w3.org/1999/xlink" width="16" height="16" viewBox="0 0 16 16">
	<defs>
		<clipPath id="clipPath0012220595">
			<path transform="matrix(1 0 0 1 0 0)" d="M0 0L16 0L16 16L0 16L0 0Z" fill-rule="nonzero"/>
		</clipPath>
	</defs>
	<g clip-path="url(#clipPath0012220595)">
		<path transform="matrix(1 0 0 1 0 0)" d="M8 1Q9.01202 1 9.93799 1.37287Q10.8341 1.73371 11.5263 2.39234Q12.2211 3.05343 12.6031 3.9123Q13 4.80467 13 5.78125Q13 7.67374 11.2997 10.7437Q10.2555 12.629 8.80269 14.5908Q8.66255 14.7833 8.45034 14.8913Q8.23812 14.9994 8 14.9994Q7.76188 14.9994 7.54966 14.8913Q7.33745 14.7833 7.19969 14.594Q5.74446 12.6281 4.70029 10.7426Q3 7.6723 3 5.78125Q3 4.80467 3.39691 3.9123Q3.77892 3.05344 4.4737 2.39234Q5.16589 1.73371 6.06201 1.37287Q6.98798 1 8 1ZM8 2Q7.18176 2 6.43554 2.30048Q5.71674 2.58993 5.16302 3.1168Q4.61198 3.64112 4.31061 4.31869Q4 5.01703 4 5.78125Q4 7.4139 5.5751 10.2582Q6.58616 12.0839 8.00001 13.9944Q9.41477 12.083 10.4249 10.2592Q12 7.4153 12 5.78125Q12 5.01703 11.6894 4.31869Q11.388 3.64112 10.837 3.1168Q10.2833 2.58993 9.56446 2.30048Q8.81824 2 8 2Z" fill-rule="evenodd" fill="rgb(156, 163, 175)"/>
		<path transform="matrix(1 0 0 1 0 0)" d="M8 4Q8.82801 4 9.41401 4.58599Q10 5.17199 10 6Q10 6.82801 9.41401 7.41401Q8.82801 8 8 8Q7.17199 8 6.58599 7.41401Q6 6.82801 6 6Q6 5.17199 6.58599 4.58599Q7.17199 4 8 4ZM8 5Q7.5862 5 7.2931 5.2931Q7 5.5862 7 6Q7 6.4138 7.2931 6.7069Q7.5862 7 8 7Q8.4138 7 8.7069 6.7069Q9 6.4138 9 6Q9 5.5862 8.7069 5.2931Q8.4138 5 8 5Z" fill-rule="evenodd" fill="rgb(156, 163, 175)"/>
	</g>
</svg>
