<?xml version="1.0" encoding="utf-8" ?>
<svg xmlns="http://www.w3.org/2000/svg" xmlns:xlink="http://www.w3.org/1999/xlink" width="24" height="24" viewBox="0 0 24 24">
	<defs>
		<clipPath id="clipPath5149209222">
			<path transform="matrix(1 0 0 1 0 0)" d="M0 0L24 0L24 24L0 24L0 0Z" fill-rule="nonzero"/>
		</clipPath>
	</defs>
	<g clip-path="url(#clipPath5149209222)">
		<path transform="matrix(1 0 0 1 0 0)" d="M15 5.29688L15 9.75C15 10.1642 15.3358 10.5 15.75 10.5C16.1642 10.5 16.5 10.1642 16.5 9.75L16.5 5.29688Q16.5 4.3823 16.1458 3.54545Q15.804 2.73796 15.1815 2.11541Q14.5589 1.49287 13.7514 1.15109Q12.9146 0.796875 12 0.796875Q11.0854 0.796875 10.2486 1.15109Q9.44108 1.49287 8.81854 2.11541Q8.19599 2.73796 7.85421 3.54545Q7.5 4.3823 7.5 5.29688L7.5 9.75C7.5 10.1642 7.83579 10.5 8.25 10.5C8.66421 10.5 9 10.1642 9 9.75L9 5.29688Q9 4.68668 9.23557 4.13013Q9.46339 3.59188 9.8792 3.17607Q10.295 2.76026 10.8333 2.53244Q11.3898 2.29688 12 2.29687Q12.6102 2.29687 13.1667 2.53244Q13.705 2.76027 14.1208 3.17607Q14.5366 3.59188 14.7644 4.13013Q15 4.68668 15 5.29688Z" fill-rule="evenodd" fill="rgb(156, 163, 175)"/>
		<path transform="matrix(1 0 0 1 0 0)" d="M6.75 9L17.25 9Q17.8596 9 18.4178 9.23625Q18.9561 9.46412 19.371 9.87899Q19.7859 10.2939 20.0137 10.8322Q20.25 11.3904 20.25 12L20.25 20.25Q20.25 20.8596 20.0137 21.4178Q19.7859 21.9561 19.371 22.371Q18.9561 22.7859 18.4178 23.0137Q17.8596 23.25 17.25 23.25L6.75 23.25Q6.14038 23.25 5.58221 23.0137Q5.04387 22.7859 4.62899 22.371Q4.21412 21.9561 3.98625 21.4178Q3.75 20.8596 3.75 20.25L3.75 12Q3.75 11.3904 3.98625 10.8322Q4.21412 10.2939 4.62899 9.87899Q5.04387 9.46412 5.58221 9.23625Q6.14038 9 6.75 9ZM6.75 10.5Q6.1293 10.5 5.68965 10.9397Q5.25 11.3793 5.25 12L5.25 20.25Q5.25 20.8707 5.68965 21.3103Q6.1293 21.75 6.75 21.75L17.25 21.75Q17.8707 21.75 18.3103 21.3103Q18.75 20.8707 18.75 20.25L18.75 12Q18.75 11.3793 18.3103 10.9397Q17.8707 10.5 17.25 10.5L6.75 10.5Z" fill-rule="evenodd" fill="rgb(156, 163, 175)"/>
	</g>
</svg>
