<?xml version="1.0" encoding="utf-8" ?>
<svg xmlns="http://www.w3.org/2000/svg" xmlns:xlink="http://www.w3.org/1999/xlink" width="20" height="20" viewBox="0 0 20 20">
	<defs>
		<clipPath id="clipPath0646322660">
			<path transform="matrix(1 0 0 1 0 0)" d="M0 0L20 0L20 20L0 20L0 0Z" fill-rule="nonzero"/>
		</clipPath>
	</defs>
	<g clip-path="url(#clipPath0646322660)">
		<path transform="matrix(1 0 0 1 0 0)" d="M12.5 13.125L12.5 14.6875Q12.5 15.132 12.3277 15.5391Q12.1615 15.9316 11.8591 16.2341Q11.5566 16.5365 11.1641 16.7027Q10.757 16.875 10.3125 16.875L4.0625 16.875Q3.61801 16.875 3.21093 16.7027Q2.81839 16.5365 2.51592 16.2341Q2.21346 15.9316 2.0473 15.5391Q1.875 15.132 1.875 14.6875L1.875 5.3125Q1.875 4.86801 2.04731 4.46093Q2.21346 4.06838 2.51592 3.76592Q2.81838 3.46346 3.21093 3.29731Q3.61801 3.125 4.0625 3.125L10 3.125Q10.4319 3.125 10.8716 3.28581Q11.2959 3.44096 11.6466 3.71569Q12.0242 4.0116 12.2441 4.39087Q12.5 4.83232 12.5 5.3125L12.5 6.875C12.5 7.22017 12.2202 7.5 11.875 7.5C11.5298 7.5 11.25 7.22017 11.25 6.875L11.25 5.3125Q11.25 4.99298 10.8756 4.69964Q10.4613 4.375 10 4.375L4.0625 4.375Q3.67461 4.375 3.3998 4.6498Q3.125 4.92461 3.125 5.3125L3.125 14.6875Q3.125 15.0754 3.3998 15.3502Q3.67461 15.625 4.0625 15.625L10.3125 15.625Q10.7004 15.625 10.9752 15.3502Q11.25 15.0754 11.25 14.6875L11.25 13.125C11.25 12.7798 11.5298 12.5 11.875 12.5C12.2202 12.5 12.5 12.7798 12.5 13.125ZM13.9331 6.43306C14.1771 6.18898 14.5729 6.18898 14.8169 6.43306L17.9419 9.55806Q17.9855 9.60159 18.0197 9.65277Q18.0539 9.70395 18.0774 9.76082Q18.101 9.81769 18.113 9.87807Q18.125 9.93844 18.125 10Q18.125 10.0616 18.113 10.1219Q18.101 10.1823 18.0774 10.2392Q18.0539 10.296 18.0197 10.3472Q17.9855 10.3984 17.9419 10.4419L14.8169 13.5669C14.5729 13.811 14.1771 13.811 13.9331 13.5669C13.689 13.3229 13.689 12.9271 13.9331 12.6831L15.9911 10.625L6.875 10.625C6.52983 10.625 6.25 10.3452 6.25 10C6.25 9.65483 6.52983 9.375 6.875 9.375L15.9911 9.375L13.9331 7.31694C13.689 7.07287 13.689 6.67713 13.9331 6.43306Z" fill-rule="evenodd" fill="rgb(239, 68, 68)"/>
	</g>
</svg>
