<?xml version="1.0" encoding="utf-8" ?>
<svg xmlns="http://www.w3.org/2000/svg" xmlns:xlink="http://www.w3.org/1999/xlink" width="20" height="20" viewBox="0 0 20 20">
	<defs>
		<clipPath id="clipPath6222168673">
			<path transform="matrix(1 0 0 1 0 0)" d="M0 0L20 0L20 20L0 20L0 0Z" fill-rule="nonzero"/>
		</clipPath>
	</defs>
	<g clip-path="url(#clipPath6222168673)">
		<path transform="matrix(1 0 0 1 0 0)" d="M17.1904 13.3325L17.1902 13.3323Q17.1248 13.2522 16.9994 13.1007Q16.585 12.6 16.4167 12.3516Q16.1575 11.9692 16.0038 11.5562Q15.6199 10.5249 15.6199 8.49023Q15.6199 6.19548 14.5372 4.77928Q13.7499 3.74949 12.3473 3.17206Q12.3367 3.1677 12.3211 3.15143Q12.3177 3.14793 12.3154 3.14508Q12.0838 2.37027 11.5146 1.85247Q10.8523 1.25 10 1.25Q9.14729 1.25 8.48526 1.85296Q7.9163 2.37116 7.68621 3.14678Q7.68451 3.14876 7.68217 3.15118Q7.66688 3.16704 7.65507 3.17189Q6.25045 3.75031 5.46424 4.77833Q4.38203 6.19338 4.38203 8.49023Q4.38086 10.5245 3.99659 11.5559Q3.84269 11.969 3.58343 12.3515Q3.41513 12.5998 3.00069 13.1006Q2.875 13.2524 2.80976 13.3323Q2.53718 13.6658 2.49926 14.0847Q2.46342 14.4805 2.64633 14.8388Q2.82827 15.1951 3.17204 15.4057Q3.53008 15.625 3.96914 15.625L6.875 15.625Q6.875 16.2601 7.12103 16.8413Q7.35838 17.4021 7.79064 17.8344Q8.2229 18.2666 8.78366 18.504Q9.36492 18.75 10 18.75Q10.6351 18.75 11.2163 18.504Q11.7771 18.2666 12.2094 17.8344Q12.6416 17.4021 12.879 16.8413Q13.125 16.2601 13.125 15.625L16.0348 15.625Q16.4735 15.625 16.8312 15.4042Q17.1733 15.193 17.3541 14.8363Q17.5355 14.4785 17.4998 14.0839Q17.4621 13.6663 17.1904 13.3325ZM16.2221 14.123Q16.1592 14.046 16.0365 13.8977Q15.5838 13.3508 15.3819 13.0528Q15.0385 12.546 14.8323 11.9922Q14.3699 10.75 14.3699 8.49023Q14.3699 6.61857 13.5442 5.53849Q12.9619 4.77686 11.8714 4.32794Q11.6172 4.2235 11.4187 4.01644Q11.2035 3.79187 11.1215 3.51567Q10.9888 3.06402 10.6734 2.77712Q10.3688 2.5 10 2.5Q9.63121 2.5 9.32695 2.77711Q9.01195 3.06401 8.88141 3.51312Q8.79904 3.79379 8.58189 4.01894Q8.38451 4.22359 8.13009 4.32811Q7.03839 4.77767 6.45715 5.53769Q5.63203 6.61658 5.63203 8.49023Q5.63073 10.7502 5.16793 11.9923Q4.96163 12.546 4.61818 13.0528Q4.41627 13.3507 3.96364 13.8976Q3.8405 14.0464 3.77774 14.1232Q3.72033 14.1934 3.75963 14.2704Q3.81303 14.375 3.96914 14.375L16.0348 14.375Q16.1865 14.375 16.2392 14.2711Q16.2789 14.1927 16.2223 14.1232L16.2221 14.123ZM8.67452 16.9505Q8.125 16.401 8.125 15.625L11.875 15.625Q11.875 16.401 11.3255 16.9505Q10.776 17.5 10 17.5Q9.22404 17.5 8.67452 16.9505Z" fill-rule="evenodd" fill="rgb(75, 85, 99)"/>
	</g>
</svg>
