<?xml version="1.0" encoding="utf-8" ?>
<svg xmlns="http://www.w3.org/2000/svg" xmlns:xlink="http://www.w3.org/1999/xlink" width="40" height="40" viewBox="0 0 40 40">
	<path transform="matrix(1 0 0 1 0 0)" d="M20 0C8.9543 0 0 8.9543 0 20L0 20.03C0 31.0757 8.92431 40 19.97 40L20 40C31.0457 40 40 31.0757 40 20.03L40 20C40 8.9543 31.0757 0 20.03 0L20 0Z" fill-rule="nonzero" fill="rgb(219, 234, 254)"/>
	<defs>
		<clipPath id="clipPath7410946418">
			<path transform="matrix(1 0 0 1 10 10)" d="M0 0L20 0L20 20L0 20L0 0Z" fill-rule="nonzero"/>
		</clipPath>
	</defs>
	<g clip-path="url(#clipPath7410946418)">
		<path transform="matrix(1 0 0 1 10 10)" d="M8.31232 4.47331Q7.89453 5.4535 7.89453 6.53008Q7.89453 7.05957 7.91664 7.3292Q7.93876 7.59892 7.9898 7.83711Q2.12159 14.7269 1.70905 15.1328Q1.2504 15.5512 1.25 16.1742Q1.25 16.5505 1.43941 16.928Q1.58225 17.2127 1.79835 17.4387Q2.16579 17.8228 2.66334 18.2175Q2.98869 18.4756 3.22523 18.6015Q3.84819 18.9331 4.24569 18.5509Q4.6339 18.1728 4.97919 17.809Q5.13517 17.6446 5.21964 17.5615Q5.54652 17.2415 5.56478 16.7252Q5.57264 16.5027 5.50432 16.111Q5.48221 15.9842 5.47446 15.9214Q5.48361 15.9224 5.49514 15.9239Q5.5537 15.9317 5.71253 15.9655Q6.07749 16.0431 6.27725 16.0457Q6.66399 16.0503 6.98416 15.8773Q7.18739 15.7675 7.45432 15.5177Q7.6816 15.3087 7.80069 15.116Q7.98684 14.8148 7.99212 14.4613Q7.99704 14.2403 7.8657 13.9111Q8.02445 13.9826 8.12239 14.0155Q8.40177 14.1091 8.64655 14.0806Q9.13782 14.0233 9.61441 13.5559Q10.0442 13.1343 10.1269 12.7463Q10.1807 12.4939 10.0619 12.1823Q10.0192 12.0703 9.90897 11.847Q9.85361 11.7349 9.81857 11.6574Q9.89229 11.6768 9.99387 11.7048Q10.2533 11.7764 10.3716 11.8027Q10.677 11.8705 10.871 11.8283Q11.0731 11.785 11.2998 11.6485Q11.3782 11.6013 11.5019 11.5144Q12.3312 11.8035 13.2812 11.8035Q14.3891 11.8035 15.4024 11.3914Q16.3828 10.9926 17.1397 10.2648Q17.8991 9.53457 18.3165 8.58584Q18.75 7.60057 18.75 6.52227Q18.75 5.44387 18.3164 4.45977Q17.8989 3.51229 17.1391 2.78367Q16.3823 2.05789 15.4017 1.66045Q14.389 1.25 13.2812 1.25Q12.1728 1.25 11.1703 1.66303Q10.2011 2.06234 9.45855 2.79324Q8.71755 3.52258 8.31232 4.47331ZM9.16246 7.22705Q9.14453 7.0084 9.14453 6.53008Q9.14453 5.70878 9.46222 4.96343Q9.77054 4.24007 10.3354 3.68411Q10.9036 3.12487 11.6465 2.81878Q12.4202 2.5 13.2812 2.5Q14.1453 2.5 14.9322 2.81892Q15.6904 3.12621 16.2739 3.68586Q16.8549 4.243 17.1725 4.96379Q17.5 5.70705 17.5 6.52227Q17.5 7.33775 17.1724 8.08247Q16.8545 8.8049 16.2733 9.36374Q15.6895 9.92516 14.9315 10.2335Q14.1446 10.5535 13.2812 10.5535Q12.3967 10.5535 11.666 10.2376Q11.5964 10.2076 11.5217 10.195Q11.447 10.1824 11.3715 10.1881Q11.2959 10.1937 11.2239 10.2172Q11.1519 10.2407 11.0876 10.2808Q11.0076 10.3306 10.8558 10.44Q10.7107 10.5446 10.6485 10.5837Q10.6456 10.5831 10.6426 10.5824Q10.5553 10.563 10.3264 10.4999Q10.067 10.4283 9.94874 10.402Q9.64336 10.3342 9.44926 10.3764Q9.13918 10.4438 8.85412 10.737Q8.59022 11.0084 8.52693 11.2798Q8.45899 11.5821 8.5919 11.9582Q8.64749 12.1155 8.7881 12.4003Q8.82778 12.4807 8.85358 12.5359Q8.80431 12.5995 8.7391 12.6635Q8.64578 12.755 8.55934 12.8076Q8.537 12.8211 8.51859 12.8299Q8.46325 12.8112 8.31244 12.7409Q7.94951 12.5717 7.72772 12.5355Q7.18721 12.4473 6.80878 12.8179Q6.42771 13.1911 6.48823 13.7172Q6.51446 13.9452 6.67277 14.2992Q6.72424 14.4142 6.73844 14.4556Q6.71897 14.4958 6.60037 14.6049Q6.45121 14.7444 6.38986 14.7776Q6.35489 14.7965 6.29307 14.7958Q6.21675 14.7948 5.97254 14.7429Q5.76677 14.6991 5.66066 14.6849Q5.41791 14.6525 5.23062 14.6919Q4.90923 14.7596 4.70709 14.9099Q4.45287 15.099 4.29663 15.4636Q4.20294 15.6822 4.22412 15.9765Q4.23263 16.0948 4.27291 16.3257Q4.31881 16.5889 4.31556 16.681Q4.3152 16.6911 4.31472 16.6985Q4.22021 16.7929 4.0725 16.9485Q3.8646 17.1676 3.64212 17.3904Q3.55245 17.3272 3.44018 17.2382Q3.00981 16.8968 2.70165 16.5746Q2.61533 16.4844 2.55668 16.3675Q2.5 16.2545 2.5 16.175Q2.50005 16.1024 2.55411 16.0539Q2.56222 16.0466 2.57008 16.039Q2.99088 15.6341 8.95338 8.63356Q9.10566 8.45478 9.15548 8.39629Q9.20846 8.33409 9.24367 8.26036Q9.27888 8.18663 9.29396 8.10633Q9.30903 8.02602 9.30296 7.94454Q9.29688 7.86306 9.27007 7.78588Q9.1892 7.55315 9.16246 7.22705ZM16.25 5.625Q16.25 6.4013 15.7007 6.95065Q15.1513 7.5 14.375 7.5Q13.5987 7.5 13.0493 6.95065Q12.5 6.4013 12.5 5.625Q12.5 4.8487 13.0493 4.29935Q13.5987 3.75 14.375 3.75Q15.1513 3.75 15.7007 4.29935Q16.25 4.8487 16.25 5.625ZM15 5.625Q15 5.36646 14.8168 5.18323Q14.6335 5 14.375 5Q14.1165 5 13.9332 5.18323Q13.75 5.36646 13.75 5.625Q13.75 5.88354 13.9332 6.06677Q14.1165 6.25 14.375 6.25Q14.6335 6.25 14.8168 6.06677Q15 5.88354 15 5.625Z" fill-rule="evenodd" fill="rgb(59, 130, 246)"/>
	</g>
</svg>
