<?xml version="1.0" encoding="utf-8" ?>
<svg xmlns="http://www.w3.org/2000/svg" xmlns:xlink="http://www.w3.org/1999/xlink" width="40" height="40" viewBox="0 0 40 40">
	<path transform="matrix(1 0 0 1 0 0)" d="M20 0C8.9543 0 0 8.9543 0 20L0 20.03C0 31.0757 8.92431 40 19.97 40L20 40C31.0457 40 40 31.0757 40 20.03L40 20C40 8.9543 31.0757 0 20.03 0L20 0Z" fill-rule="nonzero" fill="rgb(219, 234, 254)"/>
	<defs>
		<clipPath id="clipPath8994075105">
			<path transform="matrix(1 0 0 1 10 10)" d="M0 0L20 0L20 20L0 20L0 0Z" fill-rule="nonzero"/>
		</clipPath>
	</defs>
	<g clip-path="url(#clipPath8994075105)">
		<path transform="matrix(1 0 0 1 10 10)" d="M17.1736 15.0497Q16.7973 14.6706 15.8926 14.0853Q15.1058 13.5762 14.4842 13.2627Q13.8855 12.9612 13.8021 12.9611Q13.7451 12.961 13.3649 13.2435Q13.3088 13.2852 13.1994 13.3689Q12.7549 13.7087 12.4926 13.8247Q11.9944 14.0451 11.4509 13.9292Q10.8533 13.8018 9.96986 13.2515Q9.00653 12.6515 8.18376 11.8313Q7.35943 11.0096 6.74111 10.0326Q6.16761 9.12634 6.04009 8.53235Q5.92487 7.99563 6.14158 7.50298Q6.25547 7.24409 6.5879 6.80744Q6.67959 6.68701 6.72519 6.62493Q6.98118 6.27638 6.98106 6.20348Q6.98088 6.09698 6.69812 5.48893Q6.43513 4.92474 5.89377 4.10152Q5.31114 3.21556 4.91637 2.82717Q4.70506 2.61845 4.59686 2.52951Q4.55413 2.49439 4.52821 2.47779Q4.52354 2.47479 4.52259 2.4743Q4.5292 2.47772 4.53925 2.48151Q4.62487 2.51375 4.71466 2.49374L4.71629 2.49459Q4.6959 2.5027 4.63372 2.53058Q4.54589 2.56997 4.491 2.59278Q4.01725 2.79211 3.58538 3.07586Q3.16591 3.35456 2.94203 3.58734Q2.72829 3.80958 2.59382 4.09694Q2.43674 4.43258 2.53552 5.08399Q2.69178 6.11456 3.47643 7.54001Q4.39244 9.20408 5.19127 10.2655Q5.98494 11.32 7.32101 12.6524Q8.59858 13.9264 9.79736 14.8102Q10.8692 15.6005 12.4483 16.4861Q14.0105 17.3611 14.9835 17.4824Q15.5034 17.5472 15.8986 17.3631Q16.1886 17.228 16.4112 17.0157Q16.6452 16.7923 16.9246 16.3724Q17.2075 15.9437 17.4081 15.4681Q17.4301 15.4154 17.4695 15.328Q17.4975 15.2661 17.5056 15.2458L17.5062 15.248Q17.4859 15.3387 17.5185 15.4251Q17.5224 15.4352 17.5258 15.4419Q17.5253 15.4409 17.5224 15.4363Q17.5057 15.4104 17.4705 15.3677Q17.3814 15.2595 17.1731 15.0491L18.0613 14.1696Q18.3097 14.4205 18.4351 14.5727Q18.6154 14.7914 18.6879 14.9833Q18.7875 15.247 18.726 15.5214Q18.6987 15.6429 18.609 15.8418Q18.5768 15.9133 18.5599 15.9538Q18.3144 16.5358 17.9652 17.0651Q17.6087 17.6006 17.2742 17.9199Q16.9029 18.2743 16.4264 18.4962Q15.7054 18.8321 14.8289 18.7228Q13.6131 18.5712 11.8369 17.5764Q10.19 16.6527 9.05556 15.8163Q7.78184 14.8772 6.43836 13.5375Q5.03951 12.1425 4.19252 11.0171Q3.34025 9.88474 2.38138 8.1428Q1.4893 6.5222 1.29964 5.27138Q1.14411 4.24566 1.46165 3.56712Q1.68386 3.09228 2.04108 2.72086Q2.35999 2.38926 2.899 2.03117Q3.42674 1.68443 4.01134 1.43847Q4.0502 1.42232 4.1222 1.39003Q4.3213 1.30074 4.44273 1.27367Q4.71666 1.21262 4.97978 1.31171Q5.17182 1.38403 5.39061 1.56387Q5.54289 1.68905 5.79301 1.93611Q6.28252 2.4177 6.93817 3.4147Q7.5296 4.31404 7.83157 4.96185Q8.03388 5.39691 8.10405 5.58609Q8.2306 5.92724 8.23105 6.20141Q8.23158 6.51712 8.07398 6.83376Q7.97152 7.03964 7.73262 7.36492Q7.68066 7.43566 7.58247 7.56463Q7.33991 7.88323 7.28578 8.0063Q7.23192 8.12872 7.26225 8.26999Q7.343 8.64615 7.79737 9.36411Q8.34092 10.223 9.06624 10.946Q9.78821 11.6657 10.6307 12.1905Q11.3282 12.625 11.7116 12.7067Q11.859 12.7382 11.9868 12.6816Q12.1136 12.6255 12.4402 12.3758Q12.5564 12.287 12.6195 12.2401Q12.9617 11.9858 13.1597 11.8817Q13.4849 11.7107 13.8034 11.7111Q14.0843 11.7114 14.4292 11.8522Q14.6047 11.9238 15.047 12.1466Q15.7285 12.4903 16.5716 13.0357Q17.5895 13.6943 18.0608 14.1691L17.1736 15.0497Z" fill-rule="nonzero" fill="rgb(59, 130, 246)"/>
	</g>
</svg>
