<?xml version="1.0" encoding="utf-8" ?>
<svg xmlns="http://www.w3.org/2000/svg" xmlns:xlink="http://www.w3.org/1999/xlink" width="20" height="20" viewBox="0 0 20 20">
	<defs>
		<clipPath id="clipPath0280615532">
			<path transform="matrix(1 0 0 1 0 0)" d="M0 0L20 0L20 20L0 20L0 0Z" fill-rule="nonzero"/>
		</clipPath>
	</defs>
	<g clip-path="url(#clipPath0280615532)">
		<path transform="matrix(1 0 0 1 0 0)" d="M16.875 8.64258L16.875 16.25Q16.875 16.758 16.6781 17.2232Q16.4882 17.6718 16.1425 18.0175Q15.7968 18.3632 15.3482 18.5531Q14.883 18.75 14.375 18.75L5.625 18.75Q5.11698 18.75 4.65184 18.5531Q4.20322 18.3632 3.85749 18.0175Q3.51176 17.6718 3.32188 17.2232Q3.125 16.758 3.125 16.25L3.125 3.75Q3.125 3.24198 3.32188 2.77684Q3.51176 2.32822 3.85749 1.98249Q4.20322 1.63676 4.65184 1.44688Q5.11698 1.25 5.625 1.25L9.48242 1.25Q10.2589 1.25012 10.8079 1.79902L16.3259 7.31704Q16.8749 7.86612 16.875 8.64248L15.625 8.64267Q15.625 8.38389 15.442 8.20093L9.92412 2.68301Q9.74111 2.50004 9.48242 2.5L5.625 2.5Q5.10775 2.5 4.74138 2.86638Q4.375 3.23275 4.375 3.75L4.375 16.25Q4.375 16.7672 4.74138 17.1336Q5.10775 17.5 5.625 17.5L14.375 17.5Q14.8922 17.5 15.2586 17.1336Q15.625 16.7672 15.625 16.25L15.625 8.64258L16.875 8.64258Z" fill-rule="nonzero" fill="rgb(75, 85, 99)"/>
		<path transform="matrix(1 0 0 1 0 0)" d="M10 1.5625C9.65483 1.5625 9.375 1.84232 9.375 2.1875L9.375 6.875Q9.375 7.6513 9.92435 8.20065Q10.4737 8.75 11.25 8.75L15.9375 8.75C16.2827 8.75 16.5625 8.47017 16.5625 8.125C16.5625 7.77983 16.2827 7.5 15.9375 7.5L11.25 7.5Q10.9915 7.5 10.8082 7.31677Q10.625 7.13354 10.625 6.875L10.625 2.1875C10.625 1.84232 10.3452 1.5625 10 1.5625ZM6.25 11.25C6.25 11.5952 6.52983 11.875 6.875 11.875L13.125 11.875C13.4702 11.875 13.75 11.5952 13.75 11.25C13.75 10.9048 13.4702 10.625 13.125 10.625L6.875 10.625C6.52983 10.625 6.25 10.9048 6.25 11.25ZM6.25 14.375C6.25 14.7202 6.52983 15 6.875 15L13.125 15C13.4702 15 13.75 14.7202 13.75 14.375C13.75 14.0298 13.4702 13.75 13.125 13.75L6.875 13.75C6.52983 13.75 6.25 14.0298 6.25 14.375Z" fill-rule="evenodd" fill="rgb(75, 85, 99)"/>
	</g>
</svg>
