<?xml version="1.0" encoding="utf-8" ?>
<svg xmlns="http://www.w3.org/2000/svg" xmlns:xlink="http://www.w3.org/1999/xlink" width="20" height="20" viewBox="0 0 20 20">
	<defs>
		<clipPath id="clipPath8759072399">
			<path transform="matrix(1 0 0 1 0 0)" d="M0 0L20 0L20 20L0 20L0 0Z" fill-rule="nonzero"/>
		</clipPath>
	</defs>
	<g clip-path="url(#clipPath8759072399)">
		<path transform="matrix(1 0 0 1 0 0)" d="M13.534 6.40245C13.2731 6.17654 12.8784 6.20497 12.6525 6.46595L8.7594 10.9633L7.31238 9.54573C7.06581 9.30418 6.6701 9.30824 6.42854 9.55481C6.18699 9.80137 6.19105 10.1971 6.43762 10.4386L8.35949 12.3215Q8.37326 12.3349 8.38783 12.3475Q8.43437 12.3878 8.48787 12.4183Q8.54138 12.4487 8.5998 12.4681Q8.65821 12.4875 8.7193 12.4952Q8.78038 12.5028 8.84177 12.4984Q8.90317 12.494 8.96253 12.4776Q9.02188 12.4613 9.07692 12.4337Q9.13195 12.4062 9.18054 12.3684Q9.22914 12.3306 9.26942 12.284L13.5975 7.28405C13.8235 7.02307 13.795 6.62836 13.534 6.40245Z" fill-rule="evenodd" fill="rgb(75, 85, 99)"/>
		<path transform="matrix(1 0 0 1 0 0)" d="M18.6897 4.21363C18.7039 4.26169 18.7123 4.31185 18.7144 4.36317Q18.9384 7.95326 17.7594 10.9609Q16.8007 13.4062 14.9629 15.3561Q13.6218 16.779 11.9352 17.8189Q10.9974 18.3971 10.2335 18.7048Q10.1211 18.75 10 18.75Q9.87887 18.75 9.76652 18.7048Q9.0026 18.3971 8.06484 17.8189Q6.37819 16.779 5.03707 15.3561Q3.19925 13.4062 2.24064 10.9609Q1.0594 7.94779 1.2864 4.3501Q1.28968 4.29812 1.30151 4.24739Q1.31335 4.19667 1.33342 4.14861Q1.35349 4.10055 1.38124 4.05647Q1.40899 4.01239 1.44366 3.97352Q1.47832 3.93464 1.51894 3.90204Q1.55956 3.86944 1.60501 3.84401Q1.65047 3.81858 1.6995 3.80102Q1.74854 3.78347 1.79981 3.77427Q4.3567 3.31562 5.89629 2.83464Q7.38966 2.36809 9.74276 1.30539Q9.86541 1.25 10 1.25Q10.1346 1.25 10.2572 1.30539Q12.6103 2.36809 14.1037 2.83464Q15.6395 3.31443 18.1875 3.772C18.2388 3.78005 18.2881 3.79439 18.3346 3.81423C18.5042 3.88657 18.6367 4.03213 18.6897 4.21363ZM17.49 4.9149Q15.1926 4.48439 13.731 4.02777Q12.249 3.56479 10 2.56015Q7.75098 3.56479 6.26904 4.02777Q4.80741 4.48439 2.51005 4.9149Q2.40393 7.95263 3.40441 10.5047Q4.27476 12.7248 5.94672 14.4987Q7.17467 15.8016 8.72088 16.7549Q9.4229 17.1877 10 17.4459Q10.5771 17.1877 11.2791 16.7549Q12.8253 15.8016 14.0533 14.4987Q15.7252 12.7248 16.5956 10.5047Q17.5961 7.95264 17.49 4.9149Z" fill-rule="evenodd" fill="rgb(75, 85, 99)"/>
	</g>
</svg>
