<?xml version="1.0" encoding="utf-8" ?>
<svg xmlns="http://www.w3.org/2000/svg" xmlns:xlink="http://www.w3.org/1999/xlink" width="24" height="24" viewBox="0 0 24 24">
	<defs>
		<clipPath id="clipPath7863360843">
			<path transform="matrix(1 0 0 1 0 0)" d="M0 0L24 0L24 24L0 24L0 0Z" fill-rule="nonzero"/>
		</clipPath>
	</defs>
	<g clip-path="url(#clipPath7863360843)">
		<path transform="matrix(1 0 0 1 0 0)" d="M16.8729 6.80546Q16.796 7.84392 16.3807 8.79798Q15.9795 9.71967 15.3188 10.4373Q14.6491 11.1648 13.817 11.5698Q12.9329 12 12 12Q11.0671 12 10.1827 11.5699Q9.3501 11.165 8.68011 10.4377Q8.01882 9.71977 7.61787 8.798Q7.20262 7.84333 7.12698 6.80446Q7.04694 5.70395 7.38071 4.71861Q7.70703 3.75524 8.38552 3.02333Q9.06072 2.29496 9.98722 1.90051Q10.928 1.5 12 1.5Q13.0722 1.5 14.0169 1.90887Q14.9406 2.30867 15.6163 3.0429Q16.2926 3.77771 16.619 4.73751Q16.9529 5.7194 16.873 6.8054L16.8729 6.80546ZM15.377 6.6946L15.3771 6.69454Q15.4348 5.91428 15.1989 5.2205Q14.9744 4.56047 14.5126 4.05866Q14.0525 3.55876 13.4211 3.28546Q12.7615 3 12 3Q11.234 3 10.5748 3.28064Q9.94302 3.54962 9.48557 4.04308Q9.02493 4.53999 8.80142 5.19985Q8.565 5.89779 8.62302 6.69554Q8.68009 7.47945 8.99338 8.19969Q9.29344 8.88953 9.78337 9.4214Q10.2612 9.94011 10.8387 10.221Q11.4125 10.5 12 10.5Q12.5873 10.5 13.1606 10.221Q13.7376 9.94019 14.2152 9.42139Q14.7049 8.8895 15.0053 8.19932Q15.3189 7.47891 15.377 6.6946Z" fill-rule="evenodd" fill="rgb(100, 116, 139)"/>
		<path transform="matrix(1 0 0 1 0 0)" d="M12 15Q10.5555 15 9.1891 15.3892Q7.80007 15.7849 6.68235 16.5299Q5.52403 17.302 4.78678 18.367Q4.00436 19.4972 3.75497 20.88Q3.73791 20.9746 3.7668 21.0168Q3.76251 21.0105 3.75016 21.0039L3.75 21L20.25 21L20.2503 21.0038Q20.238 21.0104 20.2337 21.0166Q20.2626 20.9745 20.2455 20.88Q19.996 19.4973 19.2134 18.367Q18.4761 17.302 17.3177 16.5299Q16.2 15.7849 14.8109 15.3892Q13.4444 15 12 15L12 13.5Q13.6539 13.5 15.2218 13.9466Q16.8366 14.4066 18.1497 15.2818Q19.5463 16.2127 20.4467 17.5132Q21.4144 18.9108 21.7217 20.6137Q21.848 21.314 21.4713 21.8641Q21.2685 22.1604 20.9574 22.3267Q20.6331 22.5 20.25 22.5L3.75 22.5Q3.36692 22.5 3.0427 22.3266Q2.73176 22.1603 2.52898 21.864Q2.15247 21.3139 2.27878 20.6138Q2.5859 18.9109 3.55348 17.5132Q4.45374 16.2128 5.85038 15.2818Q7.1634 14.4066 8.77818 13.9466Q10.3461 13.5 12 13.5L12 15Z" fill-rule="nonzero" fill="rgb(100, 116, 139)"/>
	</g>
</svg>
