<?xml version="1.0" encoding="utf-8" ?>
<svg xmlns="http://www.w3.org/2000/svg" xmlns:xlink="http://www.w3.org/1999/xlink" width="40" height="40" viewBox="0 0 40 40">
	<path transform="matrix(1 0 0 1 0 0)" d="M20 0C8.9543 0 0 8.9543 0 20L0 20.03C0 31.0757 8.92431 40 19.97 40L20 40C31.0457 40 40 31.0757 40 20.03L40 20C40 8.9543 31.0757 0 20.03 0L20 0Z" fill-rule="nonzero" fill="rgb(219, 234, 254)"/>
	<defs>
		<clipPath id="clipPath5147986722">
			<path transform="matrix(1 0 0 1 10 10)" d="M0 0L20 0L20 20L0 20L0 0Z" fill-rule="nonzero"/>
		</clipPath>
	</defs>
	<g clip-path="url(#clipPath5147986722)">
		<path transform="matrix(1 0 0 1 10 10)" d="M14.0608 5.67121Q13.9966 6.53659 13.6506 7.33165Q13.3162 8.09973 12.7657 8.69777Q12.2076 9.30402 11.5142 9.64147Q10.7774 10 10 10Q9.22259 10 8.48561 9.6416Q7.79175 9.30418 7.23342 8.69806Q6.68235 8.09981 6.34823 7.33167Q6.00218 6.53611 5.93915 5.67038Q5.87245 4.7533 6.15059 3.93217Q6.42253 3.12937 6.98794 2.51944Q7.5506 1.91247 8.32268 1.58376Q9.10663 1.25 10 1.25Q10.8935 1.25 11.6807 1.59073Q12.4505 1.92389 13.0136 2.53575Q13.5771 3.14809 13.8492 3.94792Q14.1277 4.76676 14.0608 5.67045C14.0859 5.32654 13.8277 5.02721 13.4837 5.00171C13.1395 4.97619 12.8397 5.23456 12.8142 5.57879Q12.8624 4.92857 12.6657 4.35042Q12.4787 3.8004 12.0938 3.38222Q11.7104 2.96564 11.1842 2.73789Q10.6346 2.5 10 2.5Q9.36164 2.5 8.81233 2.73387Q8.28585 2.95801 7.90464 3.36923Q7.52078 3.78332 7.33452 4.33321Q7.1375 4.91483 7.18585 5.57962Q7.23341 6.23287 7.49448 6.83308Q7.74454 7.40794 8.15281 7.85116Q8.55099 8.28343 9.03228 8.51748Q9.51041 8.75 10 8.75Q10.4894 8.75 10.9672 8.5175Q11.448 8.28349 11.846 7.85116Q12.2541 7.40792 12.5044 6.83277Q12.7657 6.23242 12.8142 5.57883L14.0608 5.67121Z" fill-rule="evenodd" fill="rgb(59, 130, 246)"/>
		<path transform="matrix(1 0 0 1 10 10)" d="M10 12.5Q8.79629 12.5 7.65758 12.8244Q6.50005 13.1541 5.56863 13.7749Q4.60336 14.4184 3.98899 15.3058Q3.33696 16.2477 3.12914 17.4Q3.11492 17.4788 3.139 17.514Q3.12943 17.5 3.125 17.5L16.875 17.5Q16.8709 17.5 16.8614 17.5139Q16.8855 17.4788 16.8713 17.4Q16.6633 16.2477 16.0112 15.3058Q15.3967 14.4184 14.4314 13.7749Q13.5 13.1541 12.3424 12.8244Q11.2037 12.5 10 12.5L10 11.25Q11.3783 11.25 12.6849 11.6222Q14.0305 12.0055 15.1247 12.7348Q16.2886 13.5106 17.0389 14.5943Q17.8453 15.759 18.1014 17.1781Q18.2067 17.7617 17.8928 18.2201Q17.7237 18.467 17.4645 18.6056Q17.1943 18.75 16.875 18.75L3.125 18.75Q2.80577 18.75 2.53559 18.6055Q2.27647 18.4669 2.10748 18.22Q1.79373 17.7616 1.89899 17.1781Q2.15492 15.759 2.96123 14.5943Q3.71146 13.5106 4.87532 12.7348Q5.96951 12.0055 7.31515 11.6222Q8.62174 11.25 10 11.25L10 12.5Z" fill-rule="nonzero" fill="rgb(59, 130, 246)"/>
	</g>
</svg>
