<?xml version="1.0" encoding="utf-8" ?>
<svg xmlns="http://www.w3.org/2000/svg" xmlns:xlink="http://www.w3.org/1999/xlink" width="24" height="24" viewBox="0 0 24 24">
	<defs>
		<clipPath id="clipPath1266367624">
			<path transform="matrix(1 0 0 1 -1.95503e-05 0)" d="M0 0L24 0L24 24L0 24L0 0Z" fill-rule="nonzero"/>
		</clipPath>
	</defs>
	<g clip-path="url(#clipPath1266367624)">
		<path transform="matrix(1 0 0 1 -1.95503e-05 0)" d="M16.5 1.5Q17.1096 1.5 17.6678 1.73625Q18.2061 1.96412 18.621 2.37899Q19.0359 2.79386 19.2637 3.33221Q19.5 3.89038 19.5 4.5L19.5 21.75Q19.5 21.8878 19.451 22.0165Q19.4021 22.1453 19.3106 22.2483Q19.2114 22.3598 19.0772 22.4249Q18.943 22.4899 18.794 22.4987Q18.6451 22.5075 18.5042 22.4586Q18.3632 22.4097 18.2517 22.3106L12 16.7535L5.74827 22.3106Q5.64531 22.4021 5.51654 22.451Q5.38776 22.5 5.25 22.5Q5.17613 22.5 5.10368 22.4856Q5.03123 22.4712 4.96299 22.4429Q4.89474 22.4146 4.83332 22.3736Q4.7719 22.3326 4.71967 22.2803Q4.66744 22.2281 4.6264 22.1667Q4.58536 22.1053 4.55709 22.037Q4.52882 21.9688 4.51441 21.8963Q4.5 21.8239 4.5 21.75L4.5 4.5Q4.5 3.89038 4.73626 3.33221Q4.96412 2.79387 5.37899 2.37899Q5.79387 1.96412 6.33221 1.73625Q6.89038 1.5 7.5 1.5L16.5 1.5ZM16.5 3L7.5 3Q6.8793 3 6.43965 3.43965Q6 3.8793 6 4.5L6 20.0799L11.5017 15.1894Q11.5528 15.1441 11.6112 15.1086Q11.6696 15.0732 11.7335 15.049Q11.7973 15.0247 11.8645 15.0123Q11.9317 15 12 15Q12.0683 15 12.1355 15.0123Q12.2027 15.0247 12.2665 15.049Q12.3304 15.0732 12.3888 15.1086Q12.4472 15.1441 12.4983 15.1894L18 20.0799L18 4.5Q18 3.8793 17.5603 3.43965Q17.1207 3 16.5 3Z" fill-rule="evenodd" fill="rgb(100, 116, 139)"/>
	</g>
</svg>
