<?xml version="1.0" encoding="utf-8" ?>
<svg xmlns="http://www.w3.org/2000/svg" xmlns:xlink="http://www.w3.org/1999/xlink" width="16" height="16" viewBox="0 0 16 16">
	<defs>
		<clipPath id="clipPath9644567704">
			<path transform="matrix(1 0 0 1 0 0)" d="M0 0L16 0L16 16L0 16L0 0Z" fill-rule="nonzero"/>
		</clipPath>
	</defs>
	<g clip-path="url(#clipPath9644567704)">
		<path transform="matrix(1 0 0 1 0 0)" d="M13.5122 8.00294Q13.5109 8.21638 13.4926 8.42857L14.6858 9.36439Q14.6911 9.36856 14.6963 9.37287Q14.9326 9.56875 14.9864 9.87092Q15.0403 10.1731 14.8862 10.4385L13.5501 12.7502Q13.3914 13.0179 13.1029 13.1186Q12.8145 13.2194 12.5288 13.1108L11.1152 12.5433Q10.7606 12.7876 10.3757 12.9743L10.1654 14.4705Q10.1643 14.4788 10.1628 14.487Q10.1106 14.7858 9.88051 14.9834Q9.65039 15.181 9.34715 15.1874L6.66344 15.1875Q6.35738 15.1823 6.12847 14.9923Q5.89956 14.8024 5.83963 14.511Q5.83644 14.4956 5.83424 14.4799L5.62325 12.9855Q5.234 12.7977 4.88193 12.5517L3.47921 13.1163Q3.18497 13.2285 2.89653 13.1279Q2.60809 13.0274 2.45204 12.7648L1.11242 10.4471Q0.958655 10.1827 1.01254 9.88028Q1.06643 9.57785 1.30309 9.38199Q1.30804 9.37789 1.31311 9.37392L2.50565 8.4367Q2.48531 8.20128 2.48531 7.99906Q2.48531 7.79177 2.50521 7.57095L1.31144 6.63319Q1.30435 6.62762 1.29747 6.6218Q1.06491 6.42515 1.01292 6.12506Q0.960929 5.82498 1.11379 5.56155L2.44992 3.2498Q2.60862 2.98214 2.89708 2.88137Q3.18555 2.78061 3.47115 2.88921L4.88476 3.45666Q5.23938 3.21244 5.62428 3.02574L5.83455 1.52948Q5.83572 1.52121 5.83715 1.51298Q5.88937 1.2142 6.11949 1.01662Q6.34961 0.819033 6.65285 0.812612L9.33656 0.8125Q9.64262 0.81772 9.87153 1.00766Q10.1004 1.1976 10.1604 1.48895Q10.1636 1.50444 10.1658 1.52011L10.3767 3.01446Q10.766 3.20235 11.1181 3.44832L12.5208 2.88367Q12.815 2.77153 13.1035 2.87207Q13.3919 2.9726 13.548 3.2352L14.8876 5.55292Q15.0413 5.81729 14.9875 6.11972Q14.9336 6.42215 14.6969 6.61801Q14.692 6.62211 14.6869 6.62608L13.4929 7.56444Q13.5122 7.80606 13.5122 8L13.5122 8.00294ZM12.5122 7.99854Q12.5121 7.84495 12.4971 7.65618Q12.4738 7.40274 12.5742 7.1689Q12.6747 6.93506 12.8753 6.77704L13.9516 5.93196L12.7578 3.86626L11.4913 4.37605Q11.2568 4.4704 11.0056 4.44198Q10.7544 4.41355 10.5461 4.26857Q10.2594 4.06823 9.947 3.91741Q9.71989 3.80932 9.57073 3.6068Q9.42158 3.40428 9.38549 3.15364L9.19702 1.81249L6.80462 1.81239L6.61461 3.16452Q6.58021 3.41173 6.43351 3.61366Q6.2868 3.81559 6.06185 3.92493Q5.74459 4.07872 5.45649 4.27709Q5.24901 4.42168 4.99778 4.45066Q4.74656 4.47964 4.5098 4.38537L3.24339 3.87533L2.04936 5.94121L3.12228 6.78404Q3.32117 6.94 3.42207 7.17173Q3.52297 7.40345 3.50139 7.65828Q3.48531 7.83561 3.48531 7.99906Q3.48531 8.1582 3.50122 8.34267Q3.52512 8.59569 3.42549 8.82949Q3.32586 9.06329 3.12471 9.22296L2.04835 10.068L3.24224 12.1337L4.50869 11.6239Q4.74321 11.5296 4.99439 11.558Q5.24557 11.5864 5.45394 11.7314Q5.74056 11.9318 6.053 12.0826Q6.28011 12.1907 6.42926 12.3932Q6.57842 12.5957 6.61451 12.8464L6.80298 14.1875L9.19538 14.1876L9.38539 12.8355Q9.41978 12.5883 9.56649 12.3863Q9.7132 12.1844 9.93815 12.0751Q10.2554 11.9213 10.5435 11.7229Q10.751 11.5783 11.0022 11.5493Q11.2534 11.5204 11.4902 11.6146L12.7566 12.1247L13.9507 10.0587L12.6558 9.04311Q12.604 9.0025 12.5645 8.94989Q12.525 8.89727 12.5005 8.83622Q12.4759 8.77518 12.468 8.70986Q12.4601 8.64454 12.4693 8.5794Q12.5103 8.29112 12.5122 8L12.5122 7.99854ZM6.76819 5.82454Q7.45587 5.43516 8.24653 5.51219Q9.1353 5.60146 9.76692 6.23308Q10.3985 6.86469 10.4879 7.7543Q10.5657 8.54255 10.1755 9.23181Q9.78518 9.92108 9.06919 10.2598Q8.35319 10.5986 7.57276 10.4632Q6.79232 10.3279 6.23223 9.76777Q5.67214 9.20768 5.53677 8.42725Q5.40141 7.64681 5.74017 6.93081Q6.07892 6.21482 6.76819 5.82454ZM7.26091 6.69473Q7.67411 6.46076 8.14659 6.50718L8.14742 6.50727Q8.68073 6.5611 9.05982 6.94018Q9.4392 7.31957 9.49273 7.85258Q9.53944 8.32553 9.30527 8.73909Q9.07111 9.15265 8.64151 9.3559Q8.21191 9.55916 7.74365 9.47794Q7.27539 9.39672 6.93934 9.06066Q6.60328 8.72461 6.52206 8.25635Q6.44084 7.78809 6.6441 7.35849Q6.84735 6.92889 7.26091 6.69473Z" fill-rule="evenodd" fill="rgb(255, 255, 255)"/>
	</g>
</svg>
