<?xml version="1.0" encoding="utf-8" ?>
<svg xmlns="http://www.w3.org/2000/svg" xmlns:xlink="http://www.w3.org/1999/xlink" width="24" height="24" viewBox="0 0 24 24">
	<defs>
		<clipPath id="clipPath0602600312">
			<path transform="matrix(1 0 0 1 0 0)" d="M0 0L24 0L24 24L0 24L0 0Z" fill-rule="nonzero"/>
		</clipPath>
	</defs>
	<g clip-path="url(#clipPath0602600312)">
		<path transform="matrix(1 0 0 1 0 0)" d="M6 9Q6.60962 9 7.16779 9.23625Q7.70613 9.46412 8.12101 9.87899Q8.53588 10.2939 8.76375 10.8322Q9 11.3904 9 12Q9 12.6096 8.76375 13.1678Q8.53588 13.7061 8.12101 14.121Q7.70613 14.5359 7.16779 14.7637Q6.60962 15 6 15Q5.39038 15 4.83221 14.7637Q4.29387 14.5359 3.87899 14.121Q3.46412 13.7061 3.23625 13.1678Q3 12.6096 3 12Q3 11.3904 3.23625 10.8322Q3.46412 10.2939 3.87899 9.87899Q4.29387 9.46412 4.83221 9.23625Q5.39038 9 6 9ZM6 10.5Q5.3793 10.5 4.93965 10.9397Q4.5 11.3793 4.5 12Q4.5 12.6207 4.93965 13.0603Q5.3793 13.5 6 13.5Q6.6207 13.5 7.06035 13.0603Q7.5 12.6207 7.5 12Q7.5 11.3793 7.06035 10.9397Q6.6207 10.5 6 10.5Z" fill-rule="evenodd" fill="rgb(31, 41, 55)"/>
		<path transform="matrix(1 0 0 1 0 0)" d="M18 2.25Q18.6096 2.25 19.1678 2.48625Q19.7061 2.71412 20.121 3.12899Q20.5359 3.54386 20.7637 4.08221Q21 4.64038 21 5.25Q21 5.85962 20.7637 6.41779Q20.5359 6.95613 20.121 7.37101Q19.7061 7.78588 19.1678 8.01375Q18.6096 8.25 18 8.25Q17.3904 8.25 16.8322 8.01375Q16.2939 7.78588 15.879 7.37101Q15.4641 6.95613 15.2363 6.41779Q15 5.85962 15 5.25Q15 4.64038 15.2363 4.08221Q15.4641 3.54387 15.879 3.12899Q16.2939 2.71412 16.8322 2.48625Q17.3904 2.25 18 2.25ZM18 3.75Q17.3793 3.75 16.9397 4.18965Q16.5 4.6293 16.5 5.25Q16.5 5.8707 16.9397 6.31035Q17.3793 6.75 18 6.75Q18.6207 6.75 19.0603 6.31035Q19.5 5.8707 19.5 5.25Q19.5 4.6293 19.0603 4.18965Q18.6207 3.75 18 3.75Z" fill-rule="evenodd" fill="rgb(31, 41, 55)"/>
		<path transform="matrix(1 0 0 1 0 0)" d="M18 15.75Q18.6096 15.75 19.1678 15.9863Q19.7061 16.2141 20.121 16.629Q20.5359 17.0439 20.7637 17.5822Q21 18.1404 21 18.75Q21 19.3596 20.7637 19.9178Q20.5359 20.4561 20.121 20.871Q19.7061 21.2859 19.1678 21.5137Q18.6096 21.75 18 21.75Q17.3904 21.75 16.8322 21.5137Q16.2939 21.2859 15.879 20.871Q15.4641 20.4561 15.2363 19.9178Q15 19.3596 15 18.75Q15 18.1404 15.2363 17.5822Q15.4641 17.0439 15.879 16.629Q16.2939 16.2141 16.8322 15.9863Q17.3904 15.75 18 15.75ZM18 17.25Q17.3793 17.25 16.9397 17.6897Q16.5 18.1293 16.5 18.75Q16.5 19.3707 16.9397 19.8103Q17.3793 20.25 18 20.25Q18.6207 20.25 19.0603 19.8103Q19.5 19.3707 19.5 18.75Q19.5 18.1293 19.0603 17.6897Q18.6207 17.25 18 17.25Z" fill-rule="evenodd" fill="rgb(31, 41, 55)"/>
		<path transform="matrix(1 0 0 1 0 0)" d="M16.6929 5.98528C16.4898 5.62426 16.0325 5.49622 15.6715 5.69929L7.59309 10.2433C7.23207 10.4464 7.10403 10.9037 7.3071 11.2647C7.51017 11.6257 7.96746 11.7538 8.32847 11.5507L16.4069 7.00665C16.7679 6.80358 16.896 6.34629 16.6929 5.98528ZM7.59309 13.7567C7.23207 13.5536 7.10403 13.0963 7.3071 12.7353C7.51017 12.3743 7.96746 12.2462 8.32847 12.4493L16.4069 16.9933C16.7679 17.1964 16.896 17.6537 16.6929 18.0147C16.4898 18.3757 16.0325 18.5038 15.6715 18.3007L7.59309 13.7567Z" fill-rule="evenodd" fill="rgb(31, 41, 55)"/>
	</g>
</svg>
